<?xml version="1.0" standalone="no"?>
<!DOCTYPE svg PUBLIC "-//W3C//DTD SVG 20010904//EN"
 "http://www.w3.org/TR/2001/REC-SVG-20010904/DTD/svg10.dtd">
<svg version="1.0" xmlns="http://www.w3.org/2000/svg"
 width="300.000000pt" height="293.000000pt" viewBox="0 0 300.000000 293.000000"
 preserveAspectRatio="xMidYMid meet">

<g transform="translate(0.000000,293.000000) scale(0.100000,-0.100000)"
fill="#000000" stroke="none">
<path d="M957 2719 c-108 -25 -227 -122 -273 -221 -26 -57 -29 -73 -29 -173 0
-100 3 -116 29 -172 31 -67 112 -153 179 -188 l37 -20 0 -203 c0 -187 2 -206
21 -245 13 -25 119 -141 270 -292 l249 -251 0 -392 0 -393 148 3 147 3 3 291
c2 238 5 294 17 304 7 6 67 15 132 20 365 27 644 211 793 521 64 135 83 220
84 389 1 122 -3 159 -23 235 -73 280 -253 496 -518 622 -166 79 -306 102 -858
143 -71 6 -166 14 -209 20 -92 12 -146 11 -199 -1z m180 -265 c71 -54 90 -127
55 -207 -52 -118 -209 -136 -288 -32 -31 41 -42 107 -24 159 12 38 78 102 114
110 44 9 109 -4 143 -30z m838 -163 c225 -73 379 -231 431 -441 22 -88 15
-241 -15 -329 -61 -178 -223 -328 -407 -376 -32 -8 -117 -18 -187 -21 l-129
-6 -244 243 -244 243 0 171 0 170 51 30 c108 63 182 176 196 298 l6 49 236 -4
c212 -4 243 -7 306 -27z"/>
<path d="M560 1224 c-80 -29 -133 -77 -177 -159 -22 -42 -27 -63 -27 -131 0
-68 4 -89 28 -137 66 -137 207 -202 352 -166 l46 12 55 -54 c82 -81 83 -85 83
-264 l0 -155 130 0 130 0 0 183 c0 100 -5 199 -11 220 -7 27 -41 71 -110 145
-60 65 -97 113 -94 121 3 8 8 40 12 71 12 120 -55 243 -163 296 -71 35 -185
43 -254 18z m179 -193 c89 -64 37 -211 -74 -211 -35 0 -52 6 -79 31 -43 37
-54 81 -32 132 30 74 117 96 185 48z"/>
</g>
</svg>
